<svg width="76" height="41" viewBox="0 0 76 41" fill="none" xmlns="http://www.w3.org/2000/svg">
<path d="M20.5843 14H18.0833L14.0462 6.97949H13.9891C14.006 7.27148 14.0208 7.56559 14.0335 7.86182C14.0462 8.15804 14.0589 8.45426 14.0716 8.75049C14.0843 9.04248 14.097 9.33659 14.1097 9.63281V14H12.3514V4.71973H14.8333L18.8641 11.6704H18.9085C18.9001 11.3826 18.8895 11.097 18.8768 10.8135C18.8641 10.5299 18.8514 10.2464 18.8387 9.96289C18.8302 9.67936 18.8218 9.39583 18.8133 9.1123V4.71973H20.5843V14ZM25.4903 6.90332V14H23.5543V6.90332H25.4903ZM24.5254 4.12305C24.8132 4.12305 25.0608 4.19076 25.2681 4.32617C25.4755 4.45736 25.5792 4.70492 25.5792 5.06885C25.5792 5.42855 25.4755 5.67822 25.2681 5.81787C25.0608 5.95329 24.8132 6.021 24.5254 6.021C24.2335 6.021 23.9838 5.95329 23.7764 5.81787C23.5733 5.67822 23.4717 5.42855 23.4717 5.06885C23.4717 4.70492 23.5733 4.45736 23.7764 4.32617C23.9838 4.19076 24.2335 4.12305 24.5254 4.12305ZM30.2439 4.12305V8.54102C30.2439 8.80762 30.2333 9.07422 30.2122 9.34082C30.191 9.60742 30.1678 9.87402 30.1424 10.1406H30.1678C30.2989 9.95443 30.4322 9.77035 30.5677 9.58838C30.7073 9.40641 30.8554 9.23079 31.012 9.06152L32.9988 6.90332H35.1824L32.364 9.98193L35.3538 14H33.1194L31.0755 11.1245L30.2439 11.791V14H28.3079V4.12305H30.2439ZM43.5986 10.439C43.5986 11.0314 43.5182 11.5562 43.3574 12.0132C43.2008 12.4702 42.9702 12.8574 42.6655 13.1748C42.3651 13.488 42.0011 13.7249 41.5737 13.8857C41.1506 14.0465 40.6724 14.127 40.1392 14.127C39.6398 14.127 39.1807 14.0465 38.7617 13.8857C38.347 13.7249 37.9852 13.488 37.6763 13.1748C37.3716 12.8574 37.1346 12.4702 36.9653 12.0132C36.8003 11.5562 36.7178 11.0314 36.7178 10.439C36.7178 9.65186 36.8574 8.98535 37.1367 8.43945C37.416 7.89355 37.8138 7.47884 38.3301 7.19531C38.8464 6.91178 39.4621 6.77002 40.1772 6.77002C40.8416 6.77002 41.4299 6.91178 41.9419 7.19531C42.4582 7.47884 42.8623 7.89355 43.1543 8.43945C43.4505 8.98535 43.5986 9.65186 43.5986 10.439ZM38.6919 10.439C38.6919 10.9045 38.7427 11.2959 38.8442 11.6133C38.9458 11.9307 39.1045 12.1698 39.3203 12.3306C39.5361 12.4914 39.8175 12.5718 40.1646 12.5718C40.5073 12.5718 40.7845 12.4914 40.9961 12.3306C41.2119 12.1698 41.3685 11.9307 41.4658 11.6133C41.5674 11.2959 41.6182 10.9045 41.6182 10.439C41.6182 9.96924 41.5674 9.57992 41.4658 9.271C41.3685 8.95785 41.2119 8.72298 40.9961 8.56641C40.7803 8.40983 40.4989 8.33154 40.1519 8.33154C39.6398 8.33154 39.2674 8.50716 39.0347 8.8584C38.8062 9.20964 38.6919 9.73649 38.6919 10.439ZM47.9143 14H45.9782V4.12305H47.9143V14ZM53.6391 6.75732C54.5913 6.75732 55.3212 6.96468 55.829 7.37939C56.3369 7.79411 56.5908 8.42464 56.5908 9.271V14H55.2387L54.8642 13.0352H54.8134C54.6103 13.2891 54.4029 13.4964 54.1913 13.6572C53.9798 13.818 53.7364 13.9365 53.4614 14.0127C53.1863 14.0889 52.852 14.127 52.4584 14.127C52.0395 14.127 51.6629 14.0465 51.3286 13.8857C50.9985 13.7249 50.7382 13.4795 50.5478 13.1494C50.3574 12.8151 50.2621 12.3919 50.2621 11.8799C50.2621 11.1266 50.5266 10.5723 51.0556 10.2168C51.5846 9.8571 52.378 9.6582 53.436 9.62012L54.6674 9.58203V9.271C54.6674 8.8986 54.5701 8.62565 54.3754 8.45215C54.1808 8.27865 53.9099 8.19189 53.5629 8.19189C53.2202 8.19189 52.8837 8.24056 52.5537 8.33789C52.2236 8.43522 51.8935 8.55794 51.5634 8.70605L50.9223 7.39844C51.2989 7.19954 51.72 7.04297 52.1855 6.92871C52.6552 6.81445 53.1398 6.75732 53.6391 6.75732ZM54.6674 10.7119L53.9184 10.7373C53.2921 10.7542 52.8562 10.8664 52.6108 11.0737C52.3696 11.2811 52.249 11.554 52.249 11.8926C52.249 12.1888 52.3357 12.4004 52.5092 12.5273C52.6827 12.6501 52.9091 12.7114 53.1884 12.7114C53.6031 12.7114 53.9523 12.5887 54.2358 12.3433C54.5235 12.0978 54.6674 11.7487 54.6674 11.2959V10.7119ZM64.3214 11.8926C64.3214 12.375 64.2072 12.7834 63.9787 13.1177C63.7544 13.4478 63.418 13.6995 62.9694 13.873C62.5208 14.0423 61.9622 14.127 61.2936 14.127C60.7985 14.127 60.3732 14.0952 60.0177 14.0317C59.6665 13.9683 59.311 13.8625 58.9513 13.7144V12.1147C59.3364 12.2882 59.749 12.4321 60.1891 12.5464C60.6335 12.6564 61.0228 12.7114 61.3571 12.7114C61.7337 12.7114 62.0024 12.6564 62.1632 12.5464C62.3283 12.4321 62.4108 12.284 62.4108 12.1021C62.4108 11.9836 62.3769 11.8778 62.3092 11.7847C62.2458 11.6873 62.1061 11.5794 61.8903 11.4609C61.6745 11.3382 61.3359 11.1795 60.8747 10.9849C60.4303 10.7987 60.0643 10.6104 59.7765 10.4199C59.493 10.2295 59.2814 10.0052 59.1418 9.74707C59.0063 9.4847 58.9386 9.15251 58.9386 8.75049C58.9386 8.09456 59.1925 7.60156 59.7004 7.27148C60.2124 6.93717 60.8958 6.77002 61.7506 6.77002C62.1907 6.77002 62.6097 6.81445 63.0075 6.90332C63.4095 6.99219 63.8221 7.13395 64.2453 7.32861L63.6613 8.7251C63.3101 8.57275 62.9779 8.44792 62.6647 8.35059C62.3558 8.25326 62.0405 8.20459 61.7189 8.20459C61.4354 8.20459 61.2217 8.24268 61.0778 8.31885C60.9339 8.39502 60.862 8.51139 60.862 8.66797C60.862 8.78223 60.8979 8.88379 60.9699 8.97266C61.0461 9.06152 61.1899 9.16097 61.4015 9.271C61.6173 9.37679 61.9326 9.51432 62.3473 9.68359C62.7493 9.84863 63.0985 10.0221 63.3947 10.2041C63.6909 10.3818 63.9194 10.604 64.0802 10.8706C64.241 11.133 64.3214 11.4736 64.3214 11.8926ZM4.94906 24.5781C5.98552 24.5781 6.83969 24.7031 7.51156 24.9531C8.18865 25.2031 8.69125 25.5807 9.01937 26.0859C9.3475 26.5911 9.51156 27.2292 9.51156 28C9.51156 28.5208 9.4126 28.9766 9.21469 29.3672C9.01677 29.7578 8.75635 30.0885 8.43344 30.3594C8.11052 30.6302 7.76156 30.8516 7.38656 31.0234L10.7459 36H8.05844L5.33187 31.6172H4.04281V36H1.62094V24.5781H4.94906ZM4.77719 26.5625H4.04281V29.6484H4.82406C5.62615 29.6484 6.19906 29.5156 6.54281 29.25C6.89177 28.9792 7.06625 28.5833 7.06625 28.0625C7.06625 27.5208 6.87875 27.1354 6.50375 26.9062C6.13396 26.6771 5.55844 26.5625 4.77719 26.5625ZM20.8934 31.6172C20.8934 32.3464 20.7945 32.9922 20.5966 33.5547C20.4039 34.1172 20.12 34.5938 19.745 34.9844C19.3752 35.3698 18.9273 35.6615 18.4012 35.8594C17.8804 36.0573 17.2919 36.1562 16.6356 36.1562C16.021 36.1562 15.4559 36.0573 14.9403 35.8594C14.4299 35.6615 13.9846 35.3698 13.6044 34.9844C13.2294 34.5938 12.9377 34.1172 12.7294 33.5547C12.5262 32.9922 12.4247 32.3464 12.4247 31.6172C12.4247 30.6484 12.5966 29.8281 12.9403 29.1562C13.2841 28.4844 13.7736 27.974 14.4091 27.625C15.0445 27.276 15.8023 27.1016 16.6825 27.1016C17.5002 27.1016 18.2242 27.276 18.8544 27.625C19.4898 27.974 19.9872 28.4844 20.3466 29.1562C20.7111 29.8281 20.8934 30.6484 20.8934 31.6172ZM14.8544 31.6172C14.8544 32.1901 14.9169 32.6719 15.0419 33.0625C15.1669 33.4531 15.3622 33.7474 15.6278 33.9453C15.8934 34.1432 16.2398 34.2422 16.6669 34.2422C17.0887 34.2422 17.4299 34.1432 17.6903 33.9453C17.9559 33.7474 18.1486 33.4531 18.2684 33.0625C18.3934 32.6719 18.4559 32.1901 18.4559 31.6172C18.4559 31.0391 18.3934 30.5599 18.2684 30.1797C18.1486 29.7943 17.9559 29.5052 17.6903 29.3125C17.4247 29.1198 17.0783 29.0234 16.6512 29.0234C16.021 29.0234 15.5627 29.2396 15.2762 29.6719C14.995 30.1042 14.8544 30.7526 14.8544 31.6172ZM29.9159 33.4062C29.9159 34 29.7753 34.5026 29.4941 34.9141C29.218 35.3203 28.804 35.6302 28.2519 35.8438C27.6998 36.0521 27.0123 36.1562 26.1894 36.1562C25.58 36.1562 25.0566 36.1172 24.6191 36.0391C24.1868 35.9609 23.7493 35.8307 23.3066 35.6484V33.6797C23.7805 33.8932 24.2883 34.0703 24.83 34.2109C25.3769 34.3464 25.856 34.4141 26.2675 34.4141C26.731 34.4141 27.0618 34.3464 27.2597 34.2109C27.4628 34.0703 27.5644 33.888 27.5644 33.6641C27.5644 33.5182 27.5227 33.388 27.4394 33.2734C27.3612 33.1536 27.1894 33.0208 26.9237 32.875C26.6581 32.724 26.2415 32.5286 25.6737 32.2891C25.1269 32.0599 24.6764 31.8281 24.3222 31.5938C23.9732 31.3594 23.7128 31.0833 23.5409 30.7656C23.3743 30.4427 23.2909 30.0339 23.2909 29.5391C23.2909 28.7318 23.6034 28.125 24.2284 27.7188C24.8586 27.3073 25.6998 27.1016 26.7519 27.1016C27.2935 27.1016 27.8092 27.1562 28.2987 27.2656C28.7935 27.375 29.3014 27.5495 29.8222 27.7891L29.1034 29.5078C28.6711 29.3203 28.2623 29.1667 27.8769 29.0469C27.4967 28.9271 27.1086 28.8672 26.7128 28.8672C26.3639 28.8672 26.1008 28.9141 25.9237 29.0078C25.7467 29.1016 25.6581 29.2448 25.6581 29.4375C25.6581 29.5781 25.7024 29.7031 25.7909 29.8125C25.8847 29.9219 26.0618 30.0443 26.3222 30.1797C26.5878 30.3099 26.9758 30.4792 27.4862 30.6875C27.981 30.8906 28.4107 31.1042 28.7753 31.3281C29.1399 31.5469 29.4211 31.8203 29.6191 32.1484C29.817 32.4714 29.9159 32.8906 29.9159 33.4062ZM35.1181 27.2656V36H32.7353V27.2656H35.1181ZM33.9306 23.8438C34.2848 23.8438 34.5895 23.9271 34.8447 24.0938C35.0999 24.2552 35.2275 24.5599 35.2275 25.0078C35.2275 25.4505 35.0999 25.7578 34.8447 25.9297C34.5895 26.0964 34.2848 26.1797 33.9306 26.1797C33.5712 26.1797 33.264 26.0964 33.0087 25.9297C32.7587 25.7578 32.6337 25.4505 32.6337 25.0078C32.6337 24.5599 32.7587 24.2552 33.0087 24.0938C33.264 23.9271 33.5712 23.8438 33.9306 23.8438ZM43.5469 27.1016C44.4792 27.1016 45.2292 27.3568 45.7969 27.8672C46.3646 28.3724 46.6484 29.1849 46.6484 30.3047V36H44.2656V30.8984C44.2656 30.2734 44.151 29.8021 43.9219 29.4844C43.6979 29.1667 43.3438 29.0078 42.8594 29.0078C42.1302 29.0078 41.6328 29.2552 41.3672 29.75C41.1016 30.2448 40.9688 30.9583 40.9688 31.8906V36H38.5859V27.2656H40.4062L40.7266 28.3828H40.8594C41.0469 28.0807 41.2786 27.8359 41.5547 27.6484C41.8359 27.4609 42.1458 27.3229 42.4844 27.2344C42.8281 27.1458 43.1823 27.1016 43.5469 27.1016ZM53.6631 27.1016C54.4704 27.1016 55.1657 27.2578 55.7491 27.5703C56.3324 27.8776 56.7829 28.3255 57.1006 28.9141C57.4183 29.5026 57.5772 30.2214 57.5772 31.0703V32.2266H51.9444C51.9704 32.8984 52.1709 33.4271 52.5459 33.8125C52.9261 34.1927 53.4522 34.3828 54.1241 34.3828C54.6814 34.3828 55.1918 34.3255 55.6553 34.2109C56.1189 34.0964 56.5954 33.9245 57.085 33.6953V35.5391C56.6527 35.7526 56.1996 35.9089 55.7256 36.0078C55.2569 36.1068 54.6866 36.1562 54.0147 36.1562C53.1397 36.1562 52.3636 35.9948 51.6866 35.6719C51.0147 35.349 50.486 34.8568 50.1006 34.1953C49.7204 33.5339 49.5303 32.7005 49.5303 31.6953C49.5303 30.6745 49.7022 29.8255 50.0459 29.1484C50.3949 28.4661 50.8793 27.9557 51.4991 27.6172C52.1189 27.2734 52.8402 27.1016 53.6631 27.1016ZM53.6787 28.7969C53.2152 28.7969 52.8298 28.9453 52.5225 29.2422C52.2204 29.5391 52.0459 30.0052 51.9991 30.6406H55.3428C55.3376 30.2865 55.2725 29.9714 55.1475 29.6953C55.0277 29.4193 54.8454 29.2005 54.6006 29.0391C54.361 28.8776 54.0537 28.7969 53.6787 28.7969ZM62.8575 36H60.4747V23.8438H62.8575V36ZM68.7081 36H66.3253V23.8438H68.7081V36ZM74.5587 27.2656V36H72.1759V27.2656H74.5587ZM73.3712 23.8438C73.7254 23.8438 74.0301 23.9271 74.2853 24.0938C74.5405 24.2552 74.6681 24.5599 74.6681 25.0078C74.6681 25.4505 74.5405 25.7578 74.2853 25.9297C74.0301 26.0964 73.7254 26.1797 73.3712 26.1797C73.0119 26.1797 72.7046 26.0964 72.4494 25.9297C72.1994 25.7578 72.0744 25.4505 72.0744 25.0078C72.0744 24.5599 72.1994 24.2552 72.4494 24.0938C72.7046 23.9271 73.0119 23.8438 73.3712 23.8438Z" fill="#808080"/>
</svg>
